# xmcd CD database file
#
# Track frame offsets:
#	150
#	28354
#	54809
#	91403
#	120249
#	138925
#	158977
#
# Disc length: 2384 seconds
#
# Revision: 0
# Processed by: cddbd v1.5.1PL0 Copyright (c) Steve Scherf et al.
# Submitted via: CDex 1.51
#
DISCID=51094e07
DTITLE=Teddy Charles Tentet - Teddy Charles Tentet
DYEAR=1956
DGENRE=Jazz
TTITLE0=Vibrations
TTITLE1=The Quiet Time
TTITLE2=The Emperor
TTITLE3=Nature Boy
TTITLE4=Green Blues
TTITLE5=You Go To My Head
TTITLE6=Lydian M-1
EXTD=YEAR: 1956
EXTT0=
EXTT1=
EXTT2=
EXTT3=
EXTT4=
EXTT5=
EXTT6=
PLAYORDER=
